TITLE "Play this Intamately as if among friends"
PERFORMER "Pugwash"
CATALOG 0816651015344
REM GENRE "Alternative"
REM DATE "2015"
REM DISCID 9809E80C
FILE "Pugwash - Play this Intamately as if among friends.flac" WAVE
  TRACK 01 AUDIO
    TITLE "Kicking and Screaming"
    ISRC QMWHB1501174
    INDEX 01 00:00:00
  TRACK 02 AUDIO
    TITLE "Lucky in every way"
    ISRC QMWHB1501175
    INDEX 01 03:20:08
  TRACK 03 AUDIO
    TITLE "feed his heart with coal"
    ISRC QMWHB1501176
    INDEX 01 06:25:14
  TRACK 04 AUDIO
    TITLE "Just so you Know"
    ISRC QMWHB1501177
    INDEX 01 09:31:49
  TRACK 05 AUDIO
    TITLE "Clouds"
    ISRC QMWHB1501178
    INDEX 01 13:55:22
  TRACK 06 AUDIO
    TITLE "The fool i had become"
    ISRC QMWHB1501179
    INDEX 01 16:40:52
  TRACK 07 AUDIO
    TITLE "You could always cry"
    ISRC QMWHB1501180
    INDEX 01 20:53:63
  TRACK 08 AUDIO
    TITLE "Hung myself out to dry"
    ISRC QMWHB1501181
    INDEX 01 23:52:13
  TRACK 09 AUDIO
    TITLE "Silly Love"
    ISRC QMWHB1501182
    INDEX 01 27:37:28
  TRACK 10 AUDIO
    TITLE "Oh Happy Days"
    ISRC QMWHB1501183
    INDEX 01 31:22:74
  TRACK 11 AUDIO
    TITLE "All the way from Love"
    ISRC QMWHB1501184
    INDEX 01 33:47:22
  TRACK 12 AUDIO
    TITLE "We are Everywhere"
    ISRC QMWHB1501185
    INDEX 01 36:46:19
